<svg width="150" height="148" viewbox="0 0 150 148" xmlns="http://www.w3.org/2000/svg"><g transform="translate(-.013 .948)" fill="none" fill-rule="evenodd"><ellipse fill="#FF6EA9" cx="75.013" cy="73.052" rx="75.013" ry="73.052"/><path d="M31.363 81.786l43.463 29.983.187.13.107-.076 43.662-29.953 2.502 1.734c2.728 1.897 2.789 5.916.182 7.907l-.182.133-43.429 30.194a4.99 4.99 0 0 1-5.477.137l-.207-.137-43.429-30.194c-2.728-1.897-2.789-5.916-.182-7.907l.182-.133 2.621-1.818zm48.585-57.435V35.46l41.336 28.74a4.833 4.833 0 0 1 .182 7.83l-.182.133-43.429 30.195a4.989 4.989 0 0 1-5.684 0L28.742 72.163a4.833 4.833 0 0 1 0-7.962l41.335-28.74V24.35h9.871zm0 23.024V70.32L91.2 62.245 99.484 68l.166.224L77.935 83.81a4.99 4.99 0 0 1-5.61.133l-.195-.133-21.492-15.426 8.525-5.923 10.914 7.832V47.375L40.153 68.182l34.86 24.237 34.86-24.237-29.926-20.807z" fill="#05192D"/></g></svg>
